<?xml version="1.0" encoding="utf-8"?>
<!-- Designed by Vexels.com - 2019 All Rights Reserved - https://vexels.com/terms-and-conditions/  -->
<svg version="1.1" id="Capa_1" xmlns="http://www.w3.org/2000/svg" xmlns:xlink="http://www.w3.org/1999/xlink" x="0px" y="0px"
	 viewBox="0 0 1200 1200" enable-background="new 0 0 1200 1200" xml:space="preserve">
<g>
	<g>
		<path fill="#F7F7F7" d="M1141.769,694.496c-10.458-42.653-39.688-101.218-72.034-130.739
			c-34.469-31.46-57.999-46.966-102.091-58.455c-15.06-3.925-38.998-7.492-54.222-10.734c-20.848-4.439-35.491-9.046-56.354-13.417
			c-4.595-0.963-14.942-7.849-19.309-9.607c-4.066-1.637-7.841-3.98-11.832-5.823c-17.878-8.254-31.936-11.9-47.114-24.4
			c-4.049-3.335-7.687-6.98-8.958-12.498c-4.67-20.269-7.523-32.301-3.718-52.384c3.826-20.191,31.048-52.401,30.187-73.16
			c-0.6-14.455-4.735-29.084-13.723-40.421c-13.48-17.003-34.587-20.188-54.362-25.08c-21.426-5.3-43.366-8.119-65.082-11.917
			c-44.863-7.847-90.423-11.107-135.918-12.099c-128.179-2.794-277.627,24.283-401.758,56.359
			c-25.161,6.502-53.358,36.128-75.473,49.776c0.2,5.639,3.65,15.689,11.716,10.657c0.534-0.333,1.303-0.32,1.971-0.395
			c48.753-5.483,94.438,0.244,142.604,9.047c6.977,1.275,14.039,2.576,20.484,5.536c4.921,2.259,13.006,9.404,17.778,11.963
			c22.721,12.251,51.588,10.97,76.709,11.994c31.924,1.301,60.169-0.461,91.968,2.635c15.147,1.475,87.534,0.079,87.139,21.234
			c-0.155,8.317-5.706,14.483-7.049,22.556c-1.438,8.639,0.501,17.896,2.951,26.165c5.595,18.882,15.476,34.314,24.593,51.41
			c-1.989,2.047-4.468,2.321-7.463,2.838c-35.48,6.118-74.203,0.465-109.199,9.064c-7.509,1.845-15.063,3.835-22.792,4.056
			c-6.232,0.178-12.432-0.799-18.59-1.773c-29.356-4.644-78.598-10.763-73.862-9.178c-11.885,0.027-26.783,2.256-37.697,6.255
			c-0.789,0.289,6.649,15.676,7.264,16.386c-2.525,1.975-6.094,4.18-8.136,6.933c-2.455,3.31-2.941,8.473,0.065,11.291
			c2.206,2.068,6.305,3.7,5.294,6.55c-0.309,0.871-1.076,1.484-1.807,2.05c-3.726,2.881-7.452,5.763-11.179,8.644
			c-1.317,1.019-2.741,2.22-2.923,3.875c-0.205,1.877,1.274,3.489,2.739,4.681c20.762,16.902,67.419,15.349,93.062,16.693
			c12.708,0.666,20.422,2.331,30.675,10.782c2.205,1.804-11.488,8.282-13.143,8.713c-11.679,3.041-23.497,5.573-35.184,8.608
			c-9.002,2.338-34.817,5.184-39.158,12.903c9.059,0.06,12.869,9.361,11.185,17.31c-1.203,5.68-4.395,10.701-6.763,16.002
			c-3,6.715-6.018,14.384-4.018,21.664c7.312-4.988,12.351-12.98,21.951-16.248c4.066-1.384,8.366-2.095,12.287-3.847
			c6.206-2.772,10.978-7.911,15.682-12.816c15.958-16.639,33.085-26.083,51.367-40.131c2.106-1.618,4.44-3.292,7.095-3.268
			c2.399,0.022,4.536,1.431,6.514,2.788c9.986,6.849,10.167,10.993,20.153,17.842c-10.151,9.867-18.026,14.956-28.177,24.822
			c0.889-1.395-43.867,21.092-73.272,25.737c3.863,14.383-1.976,30.866-14.032,39.61c11.723,2.143,25.438,1.411,36.653-2.62
			c21.468-7.715,44.538-20.712,62.056-37.753c7.653-7.445,17.248-20.305,25.574-27.114c5.598-4.578,1.834-1.863,7.299-6.636
			c0.913,0.412,1.728,0.68,2.441,1.116c28.498,17.439,67.782,34.283,101.545,39.191c31.694,4.607,64.119,2.991,95.68-1.874
			c60.002-9.249,103.311-32.999,163.735-38.897c5.537-0.54,11.153-0.961,16.639-0.033c7.791,1.318,14.872,5.276,21.479,9.609
			c35.741,23.438,58.267,83.557,69.545,124.782c1.467,5.362,3.741,11.832,9.228,12.728c9.835,1.605,11.724-8.392,28.16-36.569
			c5.646,7.131,3.797,7.432,4.193,16.519c0.396,9.087,5.753,13.401,10.889,20.908c3.271,4.78,14.089,14.088,22.876-0.537
			c1.492,8.037,3.682,7.006,5.174,15.043c0.559,3.01,1.193,6.18,3.223,8.472c6.929,7.828,18.69,9.978,24.326,1.173
			c6.604,20.474,6.478,27.644,13.082,48.118c2.178,6.754,15.062,16.718,21.35,13.428c3.221,20.446,7.466,40.731,12.713,60.753
			c2.584,9.858,5.557,19.945,11.941,27.888c6.384,7.944,30.212,29.695,40.035,26.979c13.42-3.711,18.946-19.409,22.047-32.983
			c13.29-58.162,19.632-117.881,19.294-177.541C1149.832,748.418,1148.262,720.975,1141.769,694.496z"/>
	</g>
	<path fill="#8C8B89" d="M1069.735,563.756c-3.708-3.385-7.271-6.55-10.766-9.58l-80.051-19.693l-1.144-0.214
		c-2.314-0.174-3.913,1.383-7.831,1.221c-3.11-0.934-5.367-0.75-19.368-3.105c-8.164-1.373-0.854-0.359-9.04-1.561
		c-7.525-1.105-15.15-1.516-22.718-2.351c-9.749-1.076-10.025-0.851-19.73-2.254c-2.352-0.34-9.375-1.549-11.159-3.14
		c0,0,16.059,17.345,16.376,34.312c0,0.004,0,0.007,0,0.011c0.032,1.724-0.046,3.325-0.179,4.854
		c0.339,4.035,0.79,8.102,0.496,12.102c-0.468,6.366,11.422,12.198,16.521,15.831c3.189,2.271,6.474,4.422,9.951,6.222
		c10.089,5.222,15.666,11.881,23.839,18.913c7.125,6.132,16.975,25.653,18.533,35.221c0,0,63.256-2.125,111.138,4.112
		c23.532,3.065,43.351,8.148,50.122,16.497C1121.092,632.441,1096.484,588.17,1069.735,563.756z"/>
	<path fill="#8C8B89" d="M711.266,344.257c0.1-0.037,0.19-0.053,0.293-0.096c-0.379-1.168-0.569-2.285-1.076-3.233
		c-3.701-6.911-9.373-12.042-15.809-16.178c-8.369-5.377-16.921-10.516-25.689-15.206c-4.57-2.445-9.673-4.082-14.712-5.421
		c-8.658-2.301-17.456-4.076-26.192-6.087c-1.288-0.297-2.559-0.673-3.819-1.363l-22.294-6.388
		c-37.925-9.245-72.564-12.935-111.197-13.082c4.077,3.199,9.238,4.988,14.42,4.998c-38.504-0.147-76.586-1.957-114.663-2.983
		c11.552,4.135,31.062,11.31,54.902,20.819c10.712,4.273,22.29,9.015,34.418,14.167c3.761,1.598,7.576,3.237,11.432,4.911
		C572,354.163,671.244,405.541,698.827,455.785c0.109-0.031,0.217-0.054,0.326-0.069c0.913,2.757,1.867,5.525,2.888,8.313
		c2.463,6.721,4.021,6.743,4.98,3.961c1.519-4.406,1.538-15.843,1.283-18.86c-2.672-31.46,0.289-61.876,3.015-93.156
		c0.335-3.844,0.317-7.764-0.031-11.605C711.284,344.328,711.271,344.296,711.266,344.257z"/>
	<g>
		<path fill="#D5D5D4" d="M1141.769,694.496c-10.458-42.653-39.688-101.218-72.034-130.739
			c-34.469-31.46-57.999-46.966-102.091-58.455c-15.06-3.925-38.998-7.492-54.222-10.734c-20.848-4.439-35.491-9.046-56.354-13.417
			c-4.595-0.963-14.942-7.849-19.309-9.607c-4.066-1.637-7.841-3.98-11.832-5.823c-17.878-8.254-31.936-11.9-47.114-24.4
			c-4.049-3.335-7.687-6.98-8.958-12.498c-4.67-20.269-7.523-32.301-3.718-52.384c3.826-20.191,31.048-52.401,30.187-73.16
			c-0.6-14.455-4.735-29.084-13.723-40.421c-13.48-17.003-34.587-20.188-54.362-25.08c-21.426-5.3-43.366-8.119-65.082-11.917
			c-44.863-7.847-90.423-11.107-135.918-12.099c-128.179-2.794-277.627,24.283-401.758,56.359
			c-25.161,6.502-53.358,36.128-75.473,49.776c0.2,5.639,3.65,15.689,11.716,10.657c0.534-0.333,1.303-0.32,1.971-0.395
			c48.753-5.483,94.438,0.244,142.604,9.047c6.977,1.275,14.039,2.576,20.484,5.536c4.921,2.259,13.006,9.404,17.778,11.963
			c22.721,12.251,51.588,10.97,76.709,11.994c31.924,1.301,60.169-0.461,91.968,2.635c15.147,1.475,87.534,0.079,87.139,21.234
			c-0.155,8.317-5.706,14.483-7.049,22.556c-1.438,8.639,0.501,17.896,2.951,26.165c5.595,18.882,15.476,34.314,24.593,51.41
			c-1.989,2.047-4.468,2.321-7.463,2.838c-35.48,6.118-74.203,0.465-109.199,9.064c-7.509,1.845-15.063,3.835-22.792,4.056
			c-6.232,0.178-12.432-0.799-18.59-1.773c-29.356-4.644-78.598-10.763-73.862-9.178c-11.885,0.027-26.783,2.256-37.697,6.255
			c-0.789,0.289,6.649,15.676,7.264,16.386c-2.525,1.975-6.094,4.18-8.136,6.933c-2.455,3.31-2.941,8.473,0.065,11.291
			c2.206,2.068,6.305,3.7,5.294,6.55c-0.309,0.871-1.076,1.484-1.807,2.05c-3.726,2.881-7.452,5.763-11.179,8.644
			c-1.317,1.019-2.741,2.22-2.923,3.875c-0.205,1.877,1.274,3.489,2.739,4.681c20.762,16.902,67.419,15.349,93.062,16.693
			c12.708,0.666,20.422,2.331,30.675,10.782c2.205,1.804-11.488,8.282-13.143,8.713c-11.679,3.041-23.497,5.573-35.184,8.608
			c-9.002,2.338-34.817,5.184-39.158,12.903c9.059,0.06,12.869,9.361,11.185,17.31c-1.203,5.68-4.395,10.701-6.763,16.002
			c-3,6.715-6.018,14.384-4.018,21.664c7.312-4.988,12.351-12.98,21.951-16.248c4.066-1.384,8.366-2.095,12.287-3.847
			c6.206-2.772,10.978-7.911,15.682-12.816c15.958-16.639,33.085-26.083,51.367-40.131c2.106-1.618,4.44-3.292,7.095-3.268
			c2.399,0.022,4.536,1.431,6.514,2.788c9.986,6.849,10.167,10.993,20.153,17.842c-10.151,9.867-18.026,14.956-28.177,24.822
			c0.889-1.395-43.867,21.092-73.272,25.737c3.863,14.383-1.976,30.866-14.032,39.61c11.723,2.143,25.438,1.411,36.653-2.62
			c21.468-7.715,44.538-20.712,62.056-37.753c7.653-7.445,17.248-20.305,25.574-27.114c5.598-4.578,1.834-1.863,7.299-6.636
			c0.913,0.412,1.728,0.68,2.441,1.116c28.498,17.439,67.782,34.283,101.545,39.191c31.694,4.607,64.119,2.991,95.68-1.874
			c60.002-9.249,103.311-32.999,163.735-38.897c5.537-0.54,11.153-0.961,16.639-0.033c7.791,1.318,14.872,5.276,21.479,9.609
			c35.741,23.438,58.267,83.557,69.545,124.782c1.467,5.362,3.741,11.832,9.228,12.728c9.835,1.605,11.724-8.392,28.16-36.569
			c5.646,7.131,3.797,7.432,4.193,16.519c0.396,9.087,5.753,13.401,10.889,20.908c3.271,4.78,14.089,14.088,22.876-0.537
			c1.492,8.037,3.682,7.006,5.174,15.043c0.559,3.01,1.193,6.18,3.223,8.472c6.929,7.828,18.69,9.978,24.326,1.173
			c6.604,20.474,6.478,27.644,13.082,48.118c2.178,6.754,15.062,16.718,21.35,13.428c3.221,20.446,7.466,40.731,12.713,60.753
			c2.584,9.858,5.557,19.945,11.941,27.888c6.384,7.944,30.212,29.695,40.035,26.979c13.42-3.711,18.946-19.409,22.047-32.983
			c13.29-58.162,19.632-117.881,19.294-177.541C1149.832,748.418,1148.262,720.975,1141.769,694.496z M338.256,618.625
			c-7.248,0.646-11.792,5.712-16.814,9.825c-5.928,4.855-8.549,7.617-15.4,11.009c-0.865,0.428-1.78,0.754-3.605,1.518
			c0-6.185,1.454-11.009,1.454-16.234c9.947-2.26,36.946-8.844,40.257-10.091C341.511,616.499,339.965,618.473,338.256,618.625z
			 M324.419,694.496c0.364-5.332,0.69-10.112,1.044-15.302c12.034-2.727,23.75-5.381,35.465-8.036
			c0.172,0.438,0.344,0.875,0.516,1.313C349.275,679.71,337.105,686.949,324.419,694.496z M865.339,500.773
			c6.215,1.603,1.087,0.356,7.279,2.046c6.682,1.824,13.297,3.91,20.021,5.561c9.354,2.297,18.854,4.023,28.163,6.479
			c8.051,1.176,13.349,2.151,24.67,5.424c10.793,3.247,21.105,8.097,31.625,12.244c0.758,0.299,1.448,0.771,2.169,1.162
			c-0.116,0.265-0.232,0.53-0.347,0.795c-3.019-0.926-4.447,1.194-8.975,1.006c-3.11-0.934-5.367-0.75-19.368-3.105
			c-8.164-1.373-0.854-0.359-9.04-1.561c-7.525-1.105-15.15-1.516-22.717-2.351c-9.749-1.076-10.026-0.851-19.73-2.254
			c-2.352-0.34-9.375-1.549-11.16-3.14c-9.096-8.111-12.376-13.952-22.732-20.376c-0.526-0.326-0.89-0.911-1.544-1.601
			C864.461,500.933,864.947,500.672,865.339,500.773z M532.509,463.736c-0.115-2.259-0.223-4.376-0.362-7.107
			c13.201-1.521,25.842-4.107,39.404-8.143c-1.732-1.53-2.503-2.688-3.542-3.026c-1.9-0.618-3.955-1.018-5.951-1.04
			c-9.65-0.106-19.301-0.054-28.952-0.069c-0.5-0.001-1-0.102-1.696-0.178c-1.53-2.827,0.506-17.32,0.506-17.32
			c1.305-4.327,2.496-8.277,3.901-12.937c5.257-0.712,11.09-1.293,16.838-2.341c5.601-1.021,11.115-2.518,17.559-4.013
			c-1.269-1.582-1.775-2.861-2.588-3.101c-2.234-0.661-4.588-1.156-6.911-1.236c-8.465-0.291-16.936-0.482-25.405-0.5
			c-2.767-0.006-4.503-1.054-5.543-3.486c-1.516-3.548-3.011-7.106-4.697-11.091c1.637-0.31,2.711-0.602,3.802-0.706
			c6.239-0.596,12.488-1.094,18.721-1.749c1.717-0.18,3.391-0.783,5.433-1.277c-1.365-3.283-3.799-3.246-5.8-3.47
			c-8.413-0.944-16.845-1.71-25.275-2.5c-2.89-0.271-5.669-0.458-7.616-3.223c-0.671-0.952-2.254-1.407-3.512-1.777
			c-13.357-3.928-27.031-6.274-40.816-8.03c-12.418-1.582-24.844-3.1-37.478-4.672c0.065-2.619-1.736-4.045-4.467-4.373
			c-2.35-0.282-4.734-0.274-7.097-0.468c-1.802-0.148-3.593-0.414-5.364-1.512c4.121-0.375,8.25-0.672,12.36-1.138
			c11.439-1.298,22.841-3.03,34.31-3.928c21.106-1.652,42.249-2.822,63.376-4.214c2.31-0.152,4.611-0.439,7.145-0.685
			c-0.108-2.607-1.459-3.347-3.234-3.571c-4.699-0.595-9.392-1.401-14.111-1.635c-8.289-0.411-16.596-0.483-24.896-0.652
			c-26.25-0.536-52.512-1.773-78.747-1.351c-3.43,0.055-6.858,0.17-10.287,0.31c-0.869-2.388-2.539-6.478-2.899-7.725
			c6.618-1.041,12.99-1.852,19.285-3.066c27.201-5.25,54.791-6.469,82.34-8.156c1.551-0.095,3.084-0.497,5.102-0.836
			c-1.81-2.862-3.969-3.254-6.163-3.319c-5.755-0.171-11.519-0.436-17.269-0.285c-16.09,0.424-32.172,1.105-48.261,1.557
			c-12.363,0.348-24.745,0.221-37.094,0.802c-22.842,1.076-45.677,2.365-68.34,5.681c-13.983,2.046-27.997,0.615-43.106,0.551
			c3.867-3.657,7.721-4.446,11.676-4.899c33.468-3.838,66.937-8.194,100.42-12.128c17.906-2.104,35.813-4.208,53.72-6.312
			c6.109-0.718,21.559-0.057,32.132-1.392c-0.183-0.412,14.019,0.327,13.753,0c16.813,1.274,27.554,1.795,48.638,1.677
			c9.065-0.051,25.175,0.695,34.214,2.013c12.226,1.782,23.105,3.318,35.221,5.702c12.274,2.415,19.843,3.953,31.866,7.38
			c6.589,1.878,14.447,7.706,20.462,11.069c8.239,4.607,13.703,8.739,21.605,13.923c1.91,1.253,3.563,2.908,5.23,4.526
			c-0.665,0.694-0.963,1.759-1.236,2.985c-8.943,40.233-5.4,76.83,9.231,116.752c2.463,6.721,4.02,6.743,4.979,3.961
			c1.519-4.406,1.539-15.843,1.283-18.86c-2.672-31.46,0.289-61.876,3.015-93.156c0.335-3.844,0.317-7.764-0.031-11.605
			c-0.003-0.039-0.016-0.071-0.021-0.11c0.1-0.037,0.19-0.053,0.293-0.096c-0.379-1.168-0.569-2.285-1.076-3.233
			c-3.701-6.911-9.373-12.042-15.809-16.178c-8.369-5.377-16.921-10.516-25.689-15.206c-4.57-2.445-9.673-4.082-14.711-5.421
			c-8.658-2.301-17.456-4.076-26.192-6.087c-1.288-0.297-2.559-0.673-3.819-1.363l-22.293-6.388
			c-37.925-9.245-72.564-12.935-111.197-13.082c4.076,3.199,9.238,4.988,14.42,4.998c-74.07-0.283-146.582-6.749-220.492-1.863
			c46.592-16.042,96.478-19.605,145.733-21.074c93.961-2.803,188.855,1.64,280.037,24.494c10.794,2.705,22.193,6.074,29.453,14.507
			c9.368,10.882,9.124,27.087,5.741,41.041c-6.999,28.868-18.973,62.044-4.279,90.544c9.737,18.884,29.389,30.176,47.999,40.426
			c13.828,7.617,26.82,18.351,40.649,25.968c14.103,7.768,21.852,16.852,33.619,27.841c12.859,12.008,25.721,29.364,27.296,46.961
			c1.588,17.747,8.45,18.66,23.939,28.422c12.022,7.577,22.606,17.086,30.99,28.557c13.333,18.242,1.365,31.72,3.018,34.847
			c-27.436-44.278-93.277-86.061-140.799-105.579c-2.368,3.422-1.361,14.15,2.348,16.036c24.376,12.393,52.212,19.806,61.049,45.684
			c-53.72-11.553-97.388-3.725-151.748,4.284c-39.468,5.815-78.546,13.94-117.934,20.238c-34.541,5.523-74.395,13.587-108.856,4.091
			c-24.763-6.824-34.674-19.299-56.187-32.975c-3.442-2.188-27.323-25.59-29.518-24.485c10.491-5.279,13.938-11.162,24.429-16.441
			c2.832-1.425,13.511-7.639,12.804-10.729c-1.005-4.392-14.593-7.362-18.449-5.032c-7.974,4.82-23.222,11.281-31.196,16.101
			c-2.792,1.688-5.687,3.413-8.921,3.849c-3.388,0.457-6.783-0.549-10.053-1.544c-26.936-8.19-51.702-13.57-78.639-21.76
			c1.58-3.885-1.413-4.734-3.052-8.596c4.448,1.358,8.489-3.344,9.711-7.831c1.222-4.487,1.191-9.551,4.06-13.21
			c7.883-10.055,38.523,0.728,48.802,2.621c12.592,2.319,28.023,7.709,40.944,6.523c11.941-1.11,23.461-4.786,35.093-7.68
			c32.739-8.147,66.668-10.148,100.387-11.28c11.386-0.382,23.742-0.909,34.287-5.69c10.085-4.572,15.58-12.067,26.318-15.777
			c9.576-3.31,19.196-6.475,28.787-9.726c0.26-0.088,0.415-0.49,0.978-1.195c-0.953-0.549-1.838-1.491-2.706-1.477
			c-2.517,0.041-5.051,0.329-7.535,0.769c-4.505,0.8-6.444,1.139-11.205,1.688c-3.271,0.377-7.17-0.231-8.302,0
			c-7.223,1.476-12.059,0.204-19.337-0.415c-0.843-0.072-1.734-0.03-2.517-0.296c-11.356-3.861-23.121-4.679-34.987-4.791
			c-2.311-0.022-2.311-0.043-4.592-2.378L532.509,463.736z M1093.342,727.556c-4.496,49.277,4.29,90.767-25.237,129.6
			c-6.465-1.905-11.953-6.877-14.485-13.122c-1.339-3.302-2.111-7.221-5.088-9.178c-4.365-2.87-9.362,3.163-11.108,6.398
			c2.291-4.244-13.943-40.796-17.585-44.557c-6.721-6.94-18.216-15.434-23.397-7.281c-3.247-8.464-2.5-11.151-6.831-19.455
			c-1.761-3.376-3.059-10.32-6.754-11.238c-7.07-1.756-12.459-1.201-16.353,4.528c-2.071-12.53-3.741-14.842-6.793-27.17
			c-1.601-6.468-6.348-12.966-14.089-14.763c-3.085-0.716-6.355-0.292-9.275,0.934c-7.176,3.015-11.53,9.481-15.672,15.733
			c-9.793-24.86-17.8-49.565-35.139-70.382c-11.397-13.682-24.365-25.637-38.976-35.815c-4.289-2.988-8.557-6.008-12.79-9.076
			c-1.043-0.756,6.342,4.13,4.512,2.416c4.532,0.578,7.834,0.84,11.069,1.599c7.367,1.73,13.874,1.931,20.631,5.88
			c0.682,0.399,1.984,0.818,2.355,0.493c2.464-2.159,4.795-0.476,7.108,0.081c25.03,6.036,45.297,34.524,66.847,48.49
			c1.834,1.188,3.774,2.503,4.581,4.534c0.807,2.031-0.225,4.907-2.401,5.117c7.159,1.535,20.039-12.068,23.119-17.849
			c1.266-2.377,4.22-8.507,1.872-22.93c-1.557-9.568-11.407-29.089-18.533-35.221c-8.173-7.032-13.75-13.691-23.839-18.913
			c-3.476-1.799-6.762-3.951-9.951-6.222c-5.099-3.633-16.989-9.464-16.522-15.831c0.32-4.351-0.247-8.78-0.586-13.161
			c-0.303-3.92-0.405-3.912,3.852-6.35c0.467,1.284,0.824,2.542,1.37,3.712c1.205,2.585,2.179,5.377,3.885,7.593
			c1.088,1.413,3.228,2.261,5.062,2.793c2.289,0.664,3.54-0.913,3.703-3.033c0.146-1.895,2.753-18.97,2.93-18.616l9.5,18.904
			c1.181,2.349,4.724,1.507,4.72-1.123l-0.021-16.269c5.145,10.311,10.834,20.351,17.035,30.064
			c1.236,1.936,3.699,2.937,5.819,2.055c2.114-0.879,2.244-2.966,2.291-4.829c0.221-8.802,0.442-17.605,0.663-26.407l16.112,33.761
			c1.091,2.286,3.807,3.571,6.119,2.537c2.297-1.028,2.288-3.548,2.146-5.702c-0.471-7.132-0.941-14.264-1.412-21.396
			c5.583-1.025,8.344,6.427,9.205,12.037c1.366,8.902,3.564,17.675,6.546,26.173c1.371,3.906,7.212,2.73,7.025-1.406
			c-0.447-9.909-0.896-19.817-1.343-29.726c7.435,1.339,10.371,10.239,11.865,17.645c2.577,12.77,5.154,25.539,7.732,38.309
			c0.677,3.355,3.529,7.722,6.36,5.799l-0.698-50.448c3.281-0.567,4.93,3.789,5.297,7.098c1.75,15.805,3.501,31.61,5.252,47.415
			c0.595,5.368,2.076,11.86,7.253,13.398c1.823-17.617,0.119-14.447,5.116-29.059c0.191-0.557,0.858-0.69,1.324-0.329
			c2.225,1.726,4.486,2.661,7.052,5.269c5.876,5.971,7.684,8.084,11.656,15.388c8.689,15.976,11.695,37.722,14.789,56.223
			C1094.166,704.202,1094.404,715.923,1093.342,727.556z"/>
	</g>
	<g>
		<g>
			<path fill="#D88D40" d="M444.473,562.996c-1.005-4.392-14.593-7.362-18.449-5.032c-7.974,4.82-23.222,11.281-31.196,16.101
				c-2.792,1.688-5.687,3.413-8.92,3.849l-20.354,15.873c0,0-0.009,0.001-0.009,0.001c-2.883,2.607-11.111,6.44-12.372,6.768
				c-11.679,3.041-23.498,5.573-35.184,8.608c-9.002,2.338-34.817,5.184-39.158,12.903c9.059,0.06,12.869,9.361,11.185,17.31
				c-1.204,5.68-4.395,10.701-6.763,16.002c-3,6.715-6.018,14.384-4.018,21.664c7.312-4.988,12.351-12.98,21.951-16.248
				c4.066-1.384,8.366-2.095,12.288-3.847c6.205-2.772,10.977-7.911,15.682-12.816c15.958-16.639,33.085-26.083,51.367-40.131
				c0.856-0.658,1.753-1.319,2.69-1.878l0.001,0c0.553-0.33,1.122-0.62,1.708-0.85l22.319-11.107
				c10.491-5.279,13.938-11.162,24.429-16.441C434.501,572.301,445.181,566.086,444.473,562.996z"/>
			<path fill="#D88D40" d="M386.108,646.184c0.889-1.395-43.867,21.092-73.272,25.737c3.863,14.383-1.976,30.866-14.032,39.61
				c11.723,2.143,25.438,1.411,36.653-2.62c21.468-7.715,44.538-20.712,62.056-37.753c7.653-7.445,17.248-20.305,25.574-27.114
				c5.598-4.578,1.835-1.863,7.299-6.636l-16.101-16.045C404.133,631.229,396.258,636.318,386.108,646.184z"/>
		</g>
		<path fill="#D88D40" d="M973.457,650.545c-1.557-9.568-11.407-29.089-18.533-35.221c-8.173-7.032-13.75-13.691-23.839-18.913
			c-3.477-1.799-6.762-3.951-9.95-6.222c-3.524-2.51-10.286-6.071-13.976-10.132l-0.001,0c0,0-9.965-4.899-13.26,3.1
			c-0.001,0.002-0.002,0.004-0.003,0.006c0,0-13.124,13.279-26.218,5.317c-0.113-0.069-0.247-0.153-0.364-0.225
			c-0.618-0.379-1.3-0.808-2.044-1.283c-19.656-12.256-39.662-22.484-57.181-29.679c-2.368,3.422-1.361,14.15,2.348,16.036
			c24.376,12.393,52.212,19.806,61.049,45.684l15.626,16.757l0.05,0.061c21.568,9.256,39.838,33.341,59.127,45.842
			c1.834,1.188,3.774,2.503,4.581,4.534c0.807,2.031-0.225,4.907-2.401,5.117c7.159,1.535,20.039-12.068,23.119-17.849
			C972.851,671.099,975.805,664.969,973.457,650.545z"/>
	</g>
	<g>
		<path fill="#3D3D3D" d="M845.788,554.801c1.588,4.995,13.612,11.277,17.668,14.726c0.831,0.706,1.879,1.46,2.914,1.118
			c0.528-0.174,0.89-0.581,1.154-1.076c0.241-0.452,0.399-0.978,0.526-1.468c0.961-3.705,1.82-7.997-0.459-11.071
			c-3.44-4.638-20.969-5.447-26.768-5.446C842.478,553.155,845.398,553.576,845.788,554.801z"/>
		<g>
			<path fill="#3D3D3D" d="M527.232,213.761c-128.179-2.794-277.627,24.283-401.759,56.359
				c-25.161,6.502-53.358,36.128-75.473,49.776c0.2,5.639,3.651,15.689,11.717,10.657c0.534-0.333,1.303-0.32,1.971-0.395
				c48.753-5.483,94.438,0.244,142.604,9.047c6.977,1.275,14.039,2.576,20.484,5.536c4.921,2.259,13.005,9.404,17.778,11.963
				c22.721,12.251,51.588,10.97,76.709,11.994c4.122,0.168,8.178,0.282,12.192,0.365c8.642-18.212,21.553-35.3,37.178-51.15
				c-14.182,0.931-28.338,2.208-42.426,4.269c-13.984,2.046-27.997,0.615-43.106,0.551c3.867-3.657,7.721-4.446,11.676-4.899
				c28.188-3.232,56.376-6.819,84.574-10.225c10.637-9.725,22.214-18.945,34.333-27.627c-43.584-1.436-87.041-2.547-130.992,0.359
				c46.592-16.042,96.478-19.605,145.732-21.074c5.791-0.173,11.586-0.317,17.383-0.432c29.815-18.126,60.638-33.195,87.219-44.852
				C532.429,213.909,529.83,213.817,527.232,213.761z"/>
			<path fill="#3D3D3D" d="M1141.762,694.496c-6.116-24.947-18.66-55.33-34.488-82.169c-4.163,24.77-9.735,56.792-14.787,82.077
				c-4.589,22.974-8.747,40.379-11.019,41.678c-7.045,4.025-15.095-7.044-17.108-19.12c0,0,2.348,11.069-5.367,12.747
				c-7.715,1.677-19.12-22.474-19.12-22.474s-4.026,13.082-15.766,10.399c-11.74-2.683-24.486-18.114-24.486-18.114
				s-45.084-46.097-120.247-38.93c-8.599,0.82-17.602,2.364-26.965,4.727c24.071,28.74,40.096,73.295,49.039,105.986
				c1.467,5.362,3.741,11.832,9.228,12.728c9.835,1.605,11.724-8.392,28.161-36.569c5.646,7.131,3.797,7.432,4.193,16.519
				c0.397,9.087,5.753,13.401,10.889,20.908c3.271,4.78,14.089,14.089,22.876-0.537c1.492,8.037,3.682,7.006,5.174,15.043
				c0.559,3.01,1.193,6.18,3.222,8.472c6.929,7.828,18.69,9.978,24.326,1.173c6.604,20.474,6.478,27.644,13.082,48.118
				c2.178,6.754,15.061,16.718,21.35,13.428c3.221,20.446,7.466,40.731,12.713,60.753c2.584,9.858,5.557,19.945,11.941,27.888
				c6.384,7.944,30.212,29.695,40.035,26.979c13.42-3.711,18.946-19.408,22.047-32.983c13.29-58.161,19.632-117.881,19.294-177.54
				C1149.824,748.418,1148.254,720.975,1141.762,694.496z"/>
		</g>
	</g>
</g>
</svg>
